<svg id="Layer_1" data-name="Layer 1" xmlns="http://www.w3.org/2000/svg" viewBox="0 0 90 90"><defs><style>.cls-11{opacity:0.2;}.cls-21{fill:#fff;}</style></defs><title>2fpro-vopros</title><rect class="cls-11" width="90" height="90"/><path class="cls-21" d="M44.32,51l-.08-1A9.18,9.18,0,0,1,46.72,43c1.8-2.12,2.8-3.68,2.8-5.48,0-2-1.28-3.4-3.8-3.44a7.11,7.11,0,0,0-4,1.24l-1-2.52a10.49,10.49,0,0,1,5.72-1.6c4.6,0,6.68,2.84,6.68,5.88,0,2.72-1.52,4.68-3.44,7-1.76,2.08-2.4,3.84-2.28,5.88l0,1Zm-.88,5.6a2.36,2.36,0,0,1,2.4-2.52,2.5,2.5,0,1,1-2.4,2.52Z" transform="translate(0)"/></svg>